<?xml version="1.0" encoding="UTF-8" standalone="yes"?><svg xmlns="http://www.w3.org/2000/svg" xmlns:xlink="http://www.w3.org/1999/xlink" height="234px" style="width:3227px;height:234px;" version="1.1" viewBox="0 0 3227 234" width="3227px"><defs><filter height="300%" id="f1" width="300%" x="-1" y="-1"><feGaussianBlur result="blurOut" stdDeviation="2.0"/><feColorMatrix in="blurOut" result="blurOut2" type="matrix" values="0 0 0 0 0 0 0 0 0 0 0 0 0 0 0 0 0 0 .4 0"/><feOffset dx="4.0" dy="4.0" in="blurOut2" result="blurOut3"/><feBlend in="SourceGraphic" in2="blurOut3" mode="normal"/></filter></defs><g><polygon fill="#FFFFFF" filter="url(#f1)" points="22,119,32,109,3222,109,3222,219,3212,229,22,229,22,119" style="stroke: #000000; stroke-width: 2.0;"/><line style="stroke: #000000; stroke-width: 2.0;" x1="3212" x2="3221" y1="119" y2="110"/><line style="stroke: #000000; stroke-width: 2.0;" x1="22" x2="3212" y1="119" y2="119"/><line style="stroke: #000000; stroke-width: 2.0;" x1="3212" x2="3212" y1="119" y2="229"/><text fill="#000000" font-family="sans-serif" font-size="14" font-weight="bold" lengthAdjust="spacingAndGlyphs" textLength="151" x="1542.5" y="136.5332">FullWeatherStationJS</text><ellipse cx="822" cy="185" fill="#FEFECE" filter="url(#f1)" rx="8" ry="8" style="stroke: #A80036; stroke-width: 2.0;"/><text fill="#000000" font-family="sans-serif" font-size="14" lengthAdjust="spacingAndGlyphs" textLength="215" x="714.5" y="208.5332">read_FullWeatherStationJS_serial</text><rect fill="#FEFECE" filter="url(#f1)" height="37.6094" style="stroke: #A80036; stroke-width: 1.5;" width="198" x="3008" y="175"/><rect fill="#FEFECE" height="5" style="stroke: #A80036; stroke-width: 1.5;" width="10" x="3003" y="180"/><rect fill="#FEFECE" height="5" style="stroke: #A80036; stroke-width: 1.5;" width="10" x="3003" y="202.6094"/><text fill="#000000" font-family="sans-serif" font-size="14" lengthAdjust="spacingAndGlyphs" textLength="178" x="3018" y="199.5332">FullWeatherStationJS_serial</text><ellipse cx="2551" cy="185" fill="#FEFECE" filter="url(#f1)" rx="8" ry="8" style="stroke: #A80036; stroke-width: 2.0;"/><text fill="#000000" font-family="sans-serif" font-size="14" lengthAdjust="spacingAndGlyphs" textLength="215" x="2443.5" y="208.5332">write_FullWeatherStationJS_serial</text><ellipse cx="2816" cy="185" fill="#FEFECE" filter="url(#f1)" rx="8" ry="8" style="stroke: #A80036; stroke-width: 2.0;"/><text fill="#000000" font-family="sans-serif" font-size="14" lengthAdjust="spacingAndGlyphs" textLength="245" x="2693.5" y="208.5332">IOStream_FullWeatherStationJS_serial</text><rect fill="#FEFECE" filter="url(#f1)" height="37.6094" style="stroke: #A80036; stroke-width: 1.5;" width="236" x="38" y="175"/><rect fill="#FEFECE" height="5" style="stroke: #A80036; stroke-width: 1.5;" width="10" x="33" y="180"/><rect fill="#FEFECE" height="5" style="stroke: #A80036; stroke-width: 1.5;" width="10" x="33" y="202.6094"/><text fill="#000000" font-family="sans-serif" font-size="14" lengthAdjust="spacingAndGlyphs" textLength="216" x="48" y="199.5332">FullWeatherStationJS_deserializer</text><rect fill="#FEFECE" filter="url(#f1)" height="37.6094" style="stroke: #A80036; stroke-width: 1.5;" width="220" x="965" y="175"/><rect fill="#FEFECE" height="5" style="stroke: #A80036; stroke-width: 1.5;" width="10" x="960" y="180"/><rect fill="#FEFECE" height="5" style="stroke: #A80036; stroke-width: 1.5;" width="10" x="960" y="202.6094"/><text fill="#000000" font-family="sans-serif" font-size="14" lengthAdjust="spacingAndGlyphs" textLength="200" x="975" y="199.5332">FullWeatherStationJS_serializer</text><ellipse cx="538" cy="185" fill="#FEFECE" filter="url(#f1)" rx="8" ry="8" style="stroke: #A80036; stroke-width: 2.0;"/><text fill="#000000" font-family="sans-serif" font-size="14" lengthAdjust="spacingAndGlyphs" textLength="282" x="397" y="208.5332">RemoteControlIn_FullWeatherStationJS_app</text><rect fill="#FEFECE" filter="url(#f1)" height="37.6094" style="stroke: #A80036; stroke-width: 1.5;" width="188" x="1672" y="175"/><rect fill="#FEFECE" height="5" style="stroke: #A80036; stroke-width: 1.5;" width="10" x="1667" y="180"/><rect fill="#FEFECE" height="5" style="stroke: #A80036; stroke-width: 1.5;" width="10" x="1667" y="202.6094"/><text fill="#000000" font-family="sans-serif" font-size="14" lengthAdjust="spacingAndGlyphs" textLength="168" x="1682" y="199.5332">FullWeatherStationJS_app</text><ellipse cx="1455" cy="185" fill="#FEFECE" filter="url(#f1)" rx="8" ry="8" style="stroke: #A80036; stroke-width: 2.0;"/><text fill="#000000" font-family="sans-serif" font-size="14" lengthAdjust="spacingAndGlyphs" textLength="294" x="1308" y="208.5332">RemoteControlOut_FullWeatherStationJS_app</text><ellipse cx="2037" cy="185" fill="#FEFECE" filter="url(#f1)" rx="8" ry="8" style="stroke: #A80036; stroke-width: 2.0;"/><text fill="#000000" font-family="sans-serif" font-size="14" lengthAdjust="spacingAndGlyphs" textLength="214" x="1930" y="208.5332">timer_FullWeatherStationJS_timer</text><rect fill="#FEFECE" filter="url(#f1)" height="37.6094" style="stroke: #A80036; stroke-width: 1.5;" width="195" x="2213.5" y="175"/><rect fill="#FEFECE" height="5" style="stroke: #A80036; stroke-width: 1.5;" width="10" x="2208.5" y="180"/><rect fill="#FEFECE" height="5" style="stroke: #A80036; stroke-width: 1.5;" width="10" x="2208.5" y="202.6094"/><text fill="#000000" font-family="sans-serif" font-size="14" lengthAdjust="spacingAndGlyphs" textLength="175" x="2223.5" y="199.5332">FullWeatherStationJS_timer</text><path d="M838.217,175.8031 C862.603,149.964 911.536,103.803 964.5,86 C1016.48,68.529 2885.88,70.584 2938.5,86 C2997.85,103.389 3056.13,148.81 3086.13,174.8742 " fill="none" style="stroke: #A80036; stroke-width: 1.0;"/><path d="M2567.22,175.8031 C2591.6,149.964 2640.54,103.803 2693.5,86 C2745.11,68.653 2886.25,70.693 2938.5,86 C2997.85,103.389 3056.13,148.81 3086.13,174.8742 " fill="none" style="stroke: #A80036; stroke-width: 1.0;"/><path d="M2938.77,194 C2961.77,194 2984.77,194 3007.77,194 " fill="none" style="stroke: #A80036; stroke-width: 1.0;"/><path d="M558.714,175.947 C589.941,150.0603 652.086,103.58 714.5,86 C761.986,72.625 1555.25,71.804 1602.5,86 C1660.49,103.424 1716.88,148.8317 1745.87,174.8841 " fill="none" style="stroke: #A80036; stroke-width: 1.0;"/><path d="M1602.3,194 C1625.43,194 1648.55,194 1671.68,194 " fill="none" style="stroke: #A80036; stroke-width: 1.0;"/><path d="M2144.03,194 C2167.19,194 2190.34,194 2213.49,194 " fill="none" style="stroke: #A80036; stroke-width: 1.0;"/><path d="M1107.65,174.912 C1148.79,152.07 1222.42,115.136 1291,101 C1414.51,75.54 2306.28,61.351 2426,101 C2468.17,114.965 2507.67,149.2813 2530.58,172.0932 " fill="none" style="stroke: #A80036; stroke-width: 1.0;"/><polygon fill="#A80036" points="2534.11,175.6508,2530.6192,166.4413,2530.5917,172.0981,2524.9349,172.0706,2534.11,175.6508" style="stroke: #A80036; stroke-width: 1.0;"/><text fill="#000000" font-family="sans-serif" font-size="13" lengthAdjust="spacingAndGlyphs" textLength="18" x="1805" y="89.4951">out</text><path d="M1860.02,194 C1880.83,194 1903.07,194 1924.53,194 " fill="none" style="stroke: #A80036; stroke-width: 1.0;"/><polygon fill="#A80036" points="1929.67,194,1920.67,190,1924.67,194,1920.67,198,1929.67,194" style="stroke: #A80036; stroke-width: 1.0;"/><text fill="#000000" font-family="sans-serif" font-size="13" lengthAdjust="spacingAndGlyphs" textLength="29" x="1880.5" y="187.4951">timer</text><path d="M189.793,174.9066 C232.351,152.0592 308.46,115.12 379,101 C448.074,87.174 629.086,78.98 696,101 C738.41,114.956 778.257,149.275 801.378,172.0899 " fill="none" style="stroke: #A80036; stroke-width: 1.0;"/><polygon fill="#A80036" points="804.944,175.6479,801.4003,166.4587,801.4053,172.1155,795.7485,172.1205,804.944,175.6479" style="stroke: #A80036; stroke-width: 1.0;"/><text fill="#000000" font-family="sans-serif" font-size="13" lengthAdjust="spacingAndGlyphs" textLength="10" x="489" y="89.4951">in</text><path d="M274.251,194 C311.369,194 352.796,194 391.618,194 " fill="none" style="stroke: #A80036; stroke-width: 1.0;"/><polygon fill="#A80036" points="396.831,194,387.831,190,391.831,194,387.831,198,396.831,194" style="stroke: #A80036; stroke-width: 1.0;"/><text fill="#000000" font-family="sans-serif" font-size="13" lengthAdjust="spacingAndGlyphs" textLength="86" x="292.5" y="187.4951">RemoteControl</text><path d="M1185.17,194 C1221.77,194 1263.2,194 1302.42,194 " fill="none" style="stroke: #A80036; stroke-width: 1.0;"/><polygon fill="#A80036" points="1307.69,194,1298.69,190,1302.69,194,1298.69,198,1307.69,194" style="stroke: #A80036; stroke-width: 1.0;"/><text fill="#000000" font-family="sans-serif" font-size="13" lengthAdjust="spacingAndGlyphs" textLength="86" x="1203.5" y="187.4951">RemoteControl</text></g></svg>