<?xml version="1.0" encoding="UTF-8" standalone="yes"?><svg xmlns="http://www.w3.org/2000/svg" xmlns:xlink="http://www.w3.org/1999/xlink" height="399px" style="width:437px;height:399px;" version="1.1" viewBox="0 0 437 399" width="437px"><defs><filter height="300%" id="f1" width="300%" x="-1" y="-1"><feGaussianBlur result="blurOut" stdDeviation="2.0"/><feColorMatrix in="blurOut" result="blurOut2" type="matrix" values="0 0 0 0 0 0 0 0 0 0 0 0 0 0 0 0 0 0 .4 0"/><feOffset dx="4.0" dy="4.0" in="blurOut2" result="blurOut3"/><feBlend in="SourceGraphic" in2="blurOut3" mode="normal"/></filter></defs><g><ellipse cx="218" cy="18" fill="#000000" filter="url(#f1)" rx="10" ry="10" style="stroke: none; stroke-width: 1.0;"/><rect fill="#FEFECE" filter="url(#f1)" height="304.8906" rx="12.5" ry="12.5" style="stroke: #A80036; stroke-width: 1.5;" width="424" x="6" y="88"/><rect fill="#FFFFFF" height="221" rx="12.5" ry="12.5" style="stroke: #FFFFFF; stroke-width: 1.0;" width="418" x="9" y="168.8906"/><line style="stroke: #A80036; stroke-width: 1.5;" x1="6" x2="430" y1="165.8906" y2="165.8906"/><line style="stroke: #A80036; stroke-width: 1.5;" x1="6" x2="430" y1="115.6094" y2="115.6094"/><text fill="#000000" font-family="sans-serif" font-size="14" lengthAdjust="spacingAndGlyphs" textLength="46" x="195" y="107.5332">receive</text><text fill="#000000" font-family="sans-serif" font-size="12" lengthAdjust="spacingAndGlyphs" textLength="49" x="11" y="128.0664">entry / do</text><text fill="#000000" font-family="sans-serif" font-size="12" lengthAdjust="spacingAndGlyphs" textLength="126" x="11" y="143.1602">print (''Decoder ready!'')</text><text fill="#000000" font-family="sans-serif" font-size="12" lengthAdjust="spacingAndGlyphs" textLength="21" x="11" y="158.2539">end</text><ellipse cx="204.5" cy="188.8906" fill="#000000" filter="url(#f1)" rx="10" ry="10" style="stroke: none; stroke-width: 1.0;"/><rect fill="#FEFECE" filter="url(#f1)" height="143.2656" rx="12.5" ry="12.5" style="stroke: #A80036; stroke-width: 1.5;" width="375" x="17" y="234.8906"/><line style="stroke: #A80036; stroke-width: 1.5;" x1="17" x2="392" y1="262.5" y2="262.5"/><text fill="#000000" font-family="sans-serif" font-size="14" lengthAdjust="spacingAndGlyphs" textLength="22" x="193.5" y="254.4238">Idle</text><text fill="#000000" font-family="sans-serif" font-size="12" lengthAdjust="spacingAndGlyphs" textLength="49" x="22" y="279.957">entry / do</text><text fill="#000000" font-family="sans-serif" font-size="12" lengthAdjust="spacingAndGlyphs" textLength="167" x="22" y="295.0508">print (''Decoder ready indeed!'')</text><text fill="#000000" font-family="sans-serif" font-size="12" lengthAdjust="spacingAndGlyphs" textLength="21" x="22" y="310.1445">end</text><text fill="#000000" font-family="sans-serif" font-size="12" lengthAdjust="spacingAndGlyphs" textLength="136" x="22" y="325.2383">internal receive_bytes?in</text><text fill="#000000" font-family="sans-serif" font-size="12" lengthAdjust="spacingAndGlyphs" textLength="355" x="22" y="340.332">do print (''byte[] received from serial. Will try to decode it!... '' + m.b)</text><text fill="#000000" font-family="sans-serif" font-size="12" lengthAdjust="spacingAndGlyphs" textLength="68" x="22" y="355.4258">receive(m.b)</text><text fill="#000000" font-family="sans-serif" font-size="12" lengthAdjust="spacingAndGlyphs" textLength="0" x="25" y="370.5195"/><path d="M204.5,198.9536 C204.5,206.2596 204.5,217.3066 204.5,229.5626 " fill="none" style="stroke: #A80036; stroke-width: 1.0;"/><polygon fill="#A80036" points="204.5,234.8816,208.5,225.8816,204.5,229.8816,200.5,225.8816,204.5,234.8816" style="stroke: #A80036; stroke-width: 1.0;"/><path d="M218,28.194 C218,39.266 218,59.336 218,82.851 " fill="none" style="stroke: #A80036; stroke-width: 1.0;"/><polygon fill="#A80036" points="218,87.919,222,78.919,218,82.919,214,78.919,218,87.919" style="stroke: #A80036; stroke-width: 1.0;"/></g></svg>