<?xml version="1.0" encoding="UTF-8" standalone="yes"?><svg xmlns="http://www.w3.org/2000/svg" xmlns:xlink="http://www.w3.org/1999/xlink" height="384px" style="width:340px;height:384px;" version="1.1" viewBox="0 0 340 384" width="340px"><defs><filter height="300%" id="f1" width="300%" x="-1" y="-1"><feGaussianBlur result="blurOut" stdDeviation="2.0"/><feColorMatrix in="blurOut" result="blurOut2" type="matrix" values="0 0 0 0 0 0 0 0 0 0 0 0 0 0 0 0 0 0 .4 0"/><feOffset dx="4.0" dy="4.0" in="blurOut2" result="blurOut3"/><feBlend in="SourceGraphic" in2="blurOut3" mode="normal"/></filter></defs><g><ellipse cx="169.5" cy="18" fill="#000000" filter="url(#f1)" rx="10" ry="10" style="stroke: none; stroke-width: 1.0;"/><rect fill="#FEFECE" filter="url(#f1)" height="289.8906" rx="12.5" ry="12.5" style="stroke: #A80036; stroke-width: 1.5;" width="327" x="6" y="88"/><rect fill="#FFFFFF" height="206" rx="12.5" ry="12.5" style="stroke: #FFFFFF; stroke-width: 1.0;" width="321" x="9" y="168.8906"/><line style="stroke: #A80036; stroke-width: 1.5;" x1="6" x2="333" y1="165.8906" y2="165.8906"/><line style="stroke: #A80036; stroke-width: 1.5;" x1="6" x2="333" y1="115.6094" y2="115.6094"/><text fill="#000000" font-family="sans-serif" font-size="14" lengthAdjust="spacingAndGlyphs" textLength="114" x="112.5" y="107.5332">SerializerBehavior</text><text fill="#000000" font-family="sans-serif" font-size="12" lengthAdjust="spacingAndGlyphs" textLength="49" x="11" y="128.0664">entry / do</text><text fill="#000000" font-family="sans-serif" font-size="12" lengthAdjust="spacingAndGlyphs" textLength="113" x="11" y="143.1602">print (''Coder ready!'')</text><text fill="#000000" font-family="sans-serif" font-size="12" lengthAdjust="spacingAndGlyphs" textLength="21" x="11" y="158.2539">end</text><ellipse cx="156" cy="188.8906" fill="#000000" filter="url(#f1)" rx="10" ry="10" style="stroke: none; stroke-width: 1.0;"/><rect fill="#FEFECE" filter="url(#f1)" height="128.1719" rx="12.5" ry="12.5" style="stroke: #A80036; stroke-width: 1.5;" width="278" x="17" y="234.8906"/><line style="stroke: #A80036; stroke-width: 1.5;" x1="17" x2="295" y1="262.5" y2="262.5"/><text fill="#000000" font-family="sans-serif" font-size="14" lengthAdjust="spacingAndGlyphs" textLength="53" x="129.5" y="254.4238">Serialize</text><text fill="#000000" font-family="sans-serif" font-size="12" lengthAdjust="spacingAndGlyphs" textLength="189" x="22" y="279.957">entry / print ("Coder ready indeed!")</text><text fill="#000000" font-family="sans-serif" font-size="12" lengthAdjust="spacingAndGlyphs" textLength="217" x="22" y="295.0508">internal changeDisplay?RemoteControl</text><text fill="#000000" font-family="sans-serif" font-size="12" lengthAdjust="spacingAndGlyphs" textLength="258" x="22" y="310.1445">do print (''Serializing changeDisplay message'')</text><text fill="#000000" font-family="sans-serif" font-size="12" lengthAdjust="spacingAndGlyphs" textLength="87" x="22" y="325.2383">setHeader(200)</text><text fill="#000000" font-family="sans-serif" font-size="12" lengthAdjust="spacingAndGlyphs" textLength="36" x="22" y="340.332">send()</text><text fill="#000000" font-family="sans-serif" font-size="12" lengthAdjust="spacingAndGlyphs" textLength="0" x="25" y="355.4258"/><path d="M156,199.0986 C156,206.4636 156,217.5296 156,229.6246 " fill="none" style="stroke: #A80036; stroke-width: 1.0;"/><polygon fill="#A80036" points="156,234.8636,160,225.8636,156,229.8636,152,225.8636,156,234.8636" style="stroke: #A80036; stroke-width: 1.0;"/><path d="M169.5,28.152 C169.5,39.229 169.5,59.334 169.5,82.744 " fill="none" style="stroke: #A80036; stroke-width: 1.0;"/><polygon fill="#A80036" points="169.5,87.787,173.5,78.787,169.5,82.787,165.5,78.787,169.5,87.787" style="stroke: #A80036; stroke-width: 1.0;"/></g></svg>