<?xml version="1.0" encoding="UTF-8" standalone="yes"?><svg xmlns="http://www.w3.org/2000/svg" xmlns:xlink="http://www.w3.org/1999/xlink" height="430px" style="width:388px;height:430px;" version="1.1" viewBox="0 0 388 430" width="388px"><defs><filter height="300%" id="f1" width="300%" x="-1" y="-1"><feGaussianBlur result="blurOut" stdDeviation="2.0"/><feColorMatrix in="blurOut" result="blurOut2" type="matrix" values="0 0 0 0 0 0 0 0 0 0 0 0 0 0 0 0 0 0 .4 0"/><feOffset dx="4.0" dy="4.0" in="blurOut2" result="blurOut3"/><feBlend in="SourceGraphic" in2="blurOut3" mode="normal"/></filter></defs><g><ellipse cx="193.5" cy="18" fill="#000000" filter="url(#f1)" rx="10" ry="10" style="stroke: none; stroke-width: 1.0;"/><rect fill="#FEFECE" filter="url(#f1)" height="335.3594" rx="12.5" ry="12.5" style="stroke: #A80036; stroke-width: 1.5;" width="375" x="6" y="88"/><rect fill="#FFFFFF" height="176" rx="12.5" ry="12.5" style="stroke: #FFFFFF; stroke-width: 1.0;" width="369" x="9" y="244.3594"/><line style="stroke: #A80036; stroke-width: 1.5;" x1="6" x2="381" y1="241.3594" y2="241.3594"/><line style="stroke: #A80036; stroke-width: 1.5;" x1="6" x2="381" y1="115.6094" y2="115.6094"/><text fill="#000000" font-family="sans-serif" font-size="14" lengthAdjust="spacingAndGlyphs" textLength="55" x="166" y="107.5332">behavior</text><text fill="#000000" font-family="sans-serif" font-size="12" lengthAdjust="spacingAndGlyphs" textLength="49" x="11" y="128.0664">entry / do</text><text fill="#000000" font-family="sans-serif" font-size="12" lengthAdjust="spacingAndGlyphs" textLength="56" x="11" y="143.1602">initSerial()</text><text fill="#000000" font-family="sans-serif" font-size="12" lengthAdjust="spacingAndGlyphs" textLength="135" x="11" y="158.2539">print (''Serial port ready!'')</text><text fill="#000000" font-family="sans-serif" font-size="12" lengthAdjust="spacingAndGlyphs" textLength="21" x="11" y="173.3477">end</text><text fill="#000000" font-family="sans-serif" font-size="12" lengthAdjust="spacingAndGlyphs" textLength="122" x="11" y="188.4414">Exit / ExitActions() = do</text><text fill="#000000" font-family="sans-serif" font-size="12" lengthAdjust="spacingAndGlyphs" textLength="55" x="11" y="203.5352">killSerial()</text><text fill="#000000" font-family="sans-serif" font-size="12" lengthAdjust="spacingAndGlyphs" textLength="160" x="11" y="218.6289">print (''Serial port killed, RIP!'')</text><text fill="#000000" font-family="sans-serif" font-size="12" lengthAdjust="spacingAndGlyphs" textLength="21" x="11" y="233.7227">end</text><ellipse cx="180" cy="264.3594" fill="#000000" filter="url(#f1)" rx="10" ry="10" style="stroke: none; stroke-width: 1.0;"/><rect fill="#FEFECE" filter="url(#f1)" height="97.9844" rx="12.5" ry="12.5" style="stroke: #A80036; stroke-width: 1.5;" width="326" x="17" y="310.3594"/><line style="stroke: #A80036; stroke-width: 1.5;" x1="17" x2="343" y1="337.9688" y2="337.9688"/><text fill="#000000" font-family="sans-serif" font-size="14" lengthAdjust="spacingAndGlyphs" textLength="43" x="158.5" y="329.8926">default</text><text fill="#000000" font-family="sans-serif" font-size="12" lengthAdjust="spacingAndGlyphs" textLength="139" x="22" y="355.4258">internal write_bytes?write</text><text fill="#000000" font-family="sans-serif" font-size="12" lengthAdjust="spacingAndGlyphs" textLength="306" x="22" y="370.5195">do '' &amp; serialP &amp; '.write(' &amp; wb.b &amp; ', function(err, results) {'</text><text fill="#000000" font-family="sans-serif" font-size="12" lengthAdjust="spacingAndGlyphs" textLength="15" x="22" y="385.6133">'});'</text><text fill="#000000" font-family="sans-serif" font-size="12" lengthAdjust="spacingAndGlyphs" textLength="0" x="25" y="400.707"/><path d="M180,274.6164 C180,282.0944 180,293.2794 180,305.0594 " fill="none" style="stroke: #A80036; stroke-width: 1.0;"/><polygon fill="#A80036" points="180,310.1356,184,301.1356,180,305.1356,176,301.1356,180,310.1356" style="stroke: #A80036; stroke-width: 1.0;"/><path d="M193.5,28.232 C193.5,39.228 193.5,59.101 193.5,82.666 " fill="none" style="stroke: #A80036; stroke-width: 1.0;"/><polygon fill="#A80036" points="193.5,87.749,197.5,78.749,193.5,82.749,189.5,78.749,193.5,87.749" style="stroke: #A80036; stroke-width: 1.0;"/></g></svg>