<?xml version="1.0" encoding="UTF-8" standalone="yes"?><svg xmlns="http://www.w3.org/2000/svg" xmlns:xlink="http://www.w3.org/1999/xlink" height="349px" style="width:227px;height:349px;" version="1.1" viewBox="0 0 227 349" width="227px"><defs><filter height="300%" id="f1" width="300%" x="-1" y="-1"><feGaussianBlur result="blurOut" stdDeviation="2.0"/><feColorMatrix in="blurOut" result="blurOut2" type="matrix" values="0 0 0 0 0 0 0 0 0 0 0 0 0 0 0 0 0 0 .4 0"/><feOffset dx="4.0" dy="4.0" in="blurOut2" result="blurOut3"/><feBlend in="SourceGraphic" in2="blurOut3" mode="normal"/></filter></defs><g><ellipse cx="113" cy="18" fill="#000000" filter="url(#f1)" rx="10" ry="10" style="stroke: none; stroke-width: 1.0;"/><rect fill="#FEFECE" filter="url(#f1)" height="254.6094" rx="12.5" ry="12.5" style="stroke: #A80036; stroke-width: 1.5;" width="214" x="6" y="88"/><rect fill="#FFFFFF" height="221" rx="12.5" ry="12.5" style="stroke: #FFFFFF; stroke-width: 1.0;" width="208" x="9" y="118.6094"/><line style="stroke: #A80036; stroke-width: 1.5;" x1="6" x2="220" y1="115.6094" y2="115.6094"/><text fill="#000000" font-family="sans-serif" font-size="14" lengthAdjust="spacingAndGlyphs" textLength="61" x="82.5" y="107.5332">SoftTimer</text><ellipse cx="102" cy="138.6094" fill="#000000" filter="url(#f1)" rx="10" ry="10" style="stroke: none; stroke-width: 1.0;"/><rect fill="#FEFECE" filter="url(#f1)" height="143.2656" rx="12.5" ry="12.5" style="stroke: #A80036; stroke-width: 1.5;" width="170" x="17" y="184.6094"/><line style="stroke: #A80036; stroke-width: 1.5;" x1="17" x2="187" y1="212.2188" y2="212.2188"/><text fill="#000000" font-family="sans-serif" font-size="14" lengthAdjust="spacingAndGlyphs" textLength="43" x="80.5" y="204.1426">default</text><text fill="#000000" font-family="sans-serif" font-size="12" lengthAdjust="spacingAndGlyphs" textLength="138" x="22" y="229.6758">internal timer_start?timer</text><text fill="#000000" font-family="sans-serif" font-size="12" lengthAdjust="spacingAndGlyphs" textLength="72" x="22" y="244.7695">if m.delay &gt; 0</text><text fill="#000000" font-family="sans-serif" font-size="12" lengthAdjust="spacingAndGlyphs" textLength="92" x="22" y="259.8633">do start(m.delay)</text><text fill="#000000" font-family="sans-serif" font-size="12" lengthAdjust="spacingAndGlyphs" textLength="0" x="25" y="274.957"/><text fill="#000000" font-family="sans-serif" font-size="12" lengthAdjust="spacingAndGlyphs" textLength="150" x="22" y="290.0508">internal timer_cancel?timer</text><text fill="#000000" font-family="sans-serif" font-size="12" lengthAdjust="spacingAndGlyphs" textLength="61" x="22" y="305.1445">do cancel()</text><text fill="#000000" font-family="sans-serif" font-size="12" lengthAdjust="spacingAndGlyphs" textLength="0" x="25" y="320.2383"/><path d="M102,148.6724 C102,155.9784 102,167.0254 102,179.2814 " fill="none" style="stroke: #A80036; stroke-width: 1.0;"/><polygon fill="#A80036" points="102,184.6004,106,175.6004,102,179.6004,98,175.6004,102,184.6004" style="stroke: #A80036; stroke-width: 1.0;"/><path d="M113,28.167 C113,39.256 113,59.319 113,82.294 " fill="none" style="stroke: #A80036; stroke-width: 1.0;"/><polygon fill="#A80036" points="113,87.554,117,78.554,113,82.554,109,78.554,113,87.554" style="stroke: #A80036; stroke-width: 1.0;"/></g></svg>